<svg xmlns="http://www.w3.org/2000/svg" viewBox="0 0 880 380" width="880" height="380" role="img" aria-label="Total expenditure, all-India, FY 2008-09 to 2025-26" font-family="system-ui, -apple-system, Segoe UI, sans-serif">
<style>
  .surface { fill: #fcfcfb; }
  .grid { stroke: #e6e5e1; stroke-width: 1; }
  .axis { stroke: #b5b3ad; stroke-width: 1; }
  .tick { fill: #52514e; font-size: 11px; }
  .label { fill: #0b0b0b; font-size: 12px; }
  .muted { fill: #6f6e6a; font-size: 11px; }
  .series { stroke: #2a78d6; fill: none; stroke-width: 2; }
  .point { fill: #2a78d6; }
  .bar { fill: #2a78d6; }
  .marker { stroke: #b5b3ad; stroke-width: 1; stroke-dasharray: 4 3; }
  .withheld { fill: #b5b3ad; fill-opacity: 0.10; }
  .withheld-edge { stroke: #b5b3ad; stroke-width: 1; stroke-dasharray: 4 3; fill: none; }
  @media (prefers-color-scheme: dark) {
    .surface { fill: #1a1a19; }
    .grid { stroke: #35342f; }
    .axis { stroke: #56554f; }
    .tick { fill: #c3c2b7; }
    .label { fill: #ffffff; }
    .muted { fill: #9c9b93; }
    .series { stroke: #3987e5; }
    .point { fill: #3987e5; }
    .bar { fill: #3987e5; }
    .marker { stroke: #56554f; }
    .withheld { fill: #9c9b93; fill-opacity: 0.12; }
    .withheld-edge { stroke: #56554f; }
  }
</style>
<rect class="surface" width="880" height="380"/>
<text class="label" x="78" y="18">Total expenditure, all-India, FY 2008-09 to 2025-26</text>
<line class="grid" x1="78" y1="324.0" x2="856" y2="324.0"/>
<text class="tick" x="70" y="328.0" text-anchor="end">0</text>
<line class="grid" x1="78" y1="250.0" x2="856" y2="250.0"/>
<text class="tick" x="70" y="254.0" text-anchor="end">0.5</text>
<line class="grid" x1="78" y1="176.0" x2="856" y2="176.0"/>
<text class="tick" x="70" y="180.0" text-anchor="end">1</text>
<line class="grid" x1="78" y1="102.0" x2="856" y2="102.0"/>
<text class="tick" x="70" y="106.0" text-anchor="end">1.5</text>
<line class="grid" x1="78" y1="28.0" x2="856" y2="28.0"/>
<text class="tick" x="70" y="32.0" text-anchor="end">2</text>
<text class="muted" x="78" y="372">Rs lakh crore</text>
<line class="axis" x1="78" y1="324" x2="856" y2="324"/>
<text class="tick" x="99.6" y="342" text-anchor="middle">2008-09</text>
<text class="tick" x="186.1" y="342" text-anchor="middle">2010-11</text>
<text class="tick" x="272.5" y="342" text-anchor="middle">2012-13</text>
<text class="tick" x="358.9" y="342" text-anchor="middle">2014-15</text>
<text class="tick" x="445.4" y="342" text-anchor="middle">2016-17</text>
<text class="tick" x="531.8" y="342" text-anchor="middle">2018-19</text>
<text class="tick" x="618.3" y="342" text-anchor="middle">2020-21</text>
<text class="tick" x="704.7" y="342" text-anchor="middle">2022-23</text>
<text class="tick" x="791.2" y="342" text-anchor="middle">2024-25</text>
<line class="marker" x1="510.2" y1="28" x2="510.2" y2="324"/>
<text class="muted" x="516.2" y="40">flagship MIS era begins</text>
<path class="series" d="M99.6,283.7 L142.8,267.9 L186.1,265.7 L229.3,269.1 L272.5,265.4 M402.2,259.1 L445.4,237.4 L488.6,266.7 L531.8,226.9 L575.1,228.9 L618.3,161.2 L661.5,167.9 L704.7,175.1 L747.9,168.6 L791.2,176.4 L834.4,201.6"/>
<circle class="point" cx="99.6" cy="283.7" r="3"/>
<circle class="point" cx="142.8" cy="267.9" r="3"/>
<circle class="point" cx="186.1" cy="265.7" r="3"/>
<circle class="point" cx="229.3" cy="269.1" r="3"/>
<circle class="point" cx="272.5" cy="265.4" r="3"/>
<circle class="point" cx="402.2" cy="259.1" r="3"/>
<circle class="point" cx="445.4" cy="237.4" r="3"/>
<circle class="point" cx="488.6" cy="266.7" r="3"/>
<circle class="point" cx="531.8" cy="226.9" r="3"/>
<circle class="point" cx="575.1" cy="228.9" r="3"/>
<circle class="point" cx="618.3" cy="161.2" r="3"/>
<circle class="point" cx="661.5" cy="167.9" r="3"/>
<circle class="point" cx="704.7" cy="175.1" r="3"/>
<circle class="point" cx="747.9" cy="168.6" r="3"/>
<circle class="point" cx="791.2" cy="176.4" r="3"/>
<circle class="point" cx="834.4" cy="201.6" r="3"/>
<rect class="withheld" x="294.1" y="28" width="86.4" height="296.0"/>
<rect class="withheld-edge" x="294.1" y="28" width="86.4" height="296.0"/>
<text class="muted" x="337.3" y="42" text-anchor="middle">record withholds 2013-14 – 2014-15</text>
<text class="muted" x="856" y="372" text-anchor="end">no line where the record withholds a year: 2013-14, 2014-15</text>
<text class="muted" x="626.3" y="151.2" text-anchor="start">COVID-year peak</text>
</svg>