<svg xmlns="http://www.w3.org/2000/svg" viewBox="0 0 880 380" width="880" height="380" role="img" aria-label="Person-days of employment generated, all-India, FY 2006-07 to 2025-26" font-family="system-ui, -apple-system, Segoe UI, sans-serif">
<style>
  .surface { fill: #fcfcfb; }
  .grid { stroke: #e6e5e1; stroke-width: 1; }
  .axis { stroke: #b5b3ad; stroke-width: 1; }
  .tick { fill: #52514e; font-size: 11px; }
  .label { fill: #0b0b0b; font-size: 12px; }
  .muted { fill: #6f6e6a; font-size: 11px; }
  .series { stroke: #2a78d6; fill: none; stroke-width: 2; }
  .point { fill: #2a78d6; }
  .bar { fill: #2a78d6; }
  .marker { stroke: #b5b3ad; stroke-width: 1; stroke-dasharray: 4 3; }
  @media (prefers-color-scheme: dark) {
    .surface { fill: #1a1a19; }
    .grid { stroke: #35342f; }
    .axis { stroke: #56554f; }
    .tick { fill: #c3c2b7; }
    .label { fill: #ffffff; }
    .muted { fill: #9c9b93; }
    .series { stroke: #3987e5; }
    .point { fill: #3987e5; }
    .bar { fill: #3987e5; }
    .marker { stroke: #56554f; }
  }
</style>
<rect class="surface" width="880" height="380"/>
<text class="label" x="78" y="18">Person-days of employment generated, all-India, FY 2006-07 to 2025-26</text>
<line class="grid" x1="78" y1="324.0" x2="856" y2="324.0"/>
<text class="tick" x="70" y="328.0" text-anchor="end">0</text>
<line class="grid" x1="78" y1="250.0" x2="856" y2="250.0"/>
<text class="tick" x="70" y="254.0" text-anchor="end">1.25</text>
<line class="grid" x1="78" y1="176.0" x2="856" y2="176.0"/>
<text class="tick" x="70" y="180.0" text-anchor="end">2.5</text>
<line class="grid" x1="78" y1="102.0" x2="856" y2="102.0"/>
<text class="tick" x="70" y="106.0" text-anchor="end">3.75</text>
<line class="grid" x1="78" y1="28.0" x2="856" y2="28.0"/>
<text class="tick" x="70" y="32.0" text-anchor="end">5</text>
<text class="muted" x="78" y="372">billion person-days</text>
<line class="axis" x1="78" y1="324" x2="856" y2="324"/>
<text class="tick" x="97.5" y="342" text-anchor="middle">2006-07</text>
<text class="tick" x="175.2" y="342" text-anchor="middle">2008-09</text>
<text class="tick" x="253.0" y="342" text-anchor="middle">2010-11</text>
<text class="tick" x="330.9" y="342" text-anchor="middle">2012-13</text>
<text class="tick" x="408.6" y="342" text-anchor="middle">2014-15</text>
<text class="tick" x="486.4" y="342" text-anchor="middle">2016-17</text>
<text class="tick" x="564.2" y="342" text-anchor="middle">2018-19</text>
<text class="tick" x="642.0" y="342" text-anchor="middle">2020-21</text>
<text class="tick" x="719.9" y="342" text-anchor="middle">2022-23</text>
<text class="tick" x="836.5" y="342" text-anchor="middle">2025-26</text>
<line class="marker" x1="544.8" y1="28" x2="544.8" y2="324"/>
<text class="muted" x="550.8" y="40">flagship MIS era begins</text>
<path class="series" d="M97.5,270.4 L136.3,238.9 L175.2,195.9 L214.2,156.1 L253.0,171.8 L291.9,194.5 M447.6,184.8 L486.4,184.4 L525.3,244.1 L564.2,172.9 L603.1,173.8 L642.0,94.2 L680.9,111.4 L719.9,150.1 L758.8,141.0 L797.6,162.9 L836.5,193.2"/>
<circle class="point" cx="97.5" cy="270.4" r="3"/>
<circle class="point" cx="136.3" cy="238.9" r="3"/>
<circle class="point" cx="175.2" cy="195.9" r="3"/>
<circle class="point" cx="214.2" cy="156.1" r="3"/>
<circle class="point" cx="253.0" cy="171.8" r="3"/>
<circle class="point" cx="291.9" cy="194.5" r="3"/>
<circle class="point" cx="447.6" cy="184.8" r="3"/>
<circle class="point" cx="486.4" cy="184.4" r="3"/>
<circle class="point" cx="525.3" cy="244.1" r="3"/>
<circle class="point" cx="564.2" cy="172.9" r="3"/>
<circle class="point" cx="603.1" cy="173.8" r="3"/>
<circle class="point" cx="642.0" cy="94.2" r="3"/>
<circle class="point" cx="680.9" cy="111.4" r="3"/>
<circle class="point" cx="719.9" cy="150.1" r="3"/>
<circle class="point" cx="758.8" cy="141.0" r="3"/>
<circle class="point" cx="797.6" cy="162.9" r="3"/>
<circle class="point" cx="836.5" cy="193.2" r="3"/>
<text class="muted" x="856" y="372" text-anchor="end">no line where the record withholds a year: 2012-13, 2013-14, 2014-15</text>
<text class="muted" x="650.0" y="84.2" text-anchor="start">COVID-year peak</text>
</svg>