<svg xmlns="http://www.w3.org/2000/svg" viewBox="0 0 880 380" width="880" height="380" role="img" aria-label="Null cells in the state series, by financial year" font-family="system-ui, -apple-system, Segoe UI, sans-serif">
<style>
  .surface { fill: #fcfcfb; }
  .grid { stroke: #e6e5e1; stroke-width: 1; }
  .axis { stroke: #b5b3ad; stroke-width: 1; }
  .tick { fill: #52514e; font-size: 11px; }
  .label { fill: #0b0b0b; font-size: 12px; }
  .muted { fill: #6f6e6a; font-size: 11px; }
  .series { stroke: #2a78d6; fill: none; stroke-width: 2; }
  .point { fill: #2a78d6; }
  .bar { fill: #2a78d6; }
  .marker { stroke: #b5b3ad; stroke-width: 1; stroke-dasharray: 4 3; }
  @media (prefers-color-scheme: dark) {
    .surface { fill: #1a1a19; }
    .grid { stroke: #35342f; }
    .axis { stroke: #56554f; }
    .tick { fill: #c3c2b7; }
    .label { fill: #ffffff; }
    .muted { fill: #9c9b93; }
    .series { stroke: #3987e5; }
    .point { fill: #3987e5; }
    .bar { fill: #3987e5; }
    .marker { stroke: #56554f; }
  }
</style>
<rect class="surface" width="880" height="380"/>
<text class="label" x="78" y="18">Null cells in the state series, by financial year</text>
<line class="grid" x1="78" y1="324.0" x2="856" y2="324.0"/>
<text class="tick" x="70" y="328.0" text-anchor="end">0</text>
<line class="grid" x1="78" y1="250.0" x2="856" y2="250.0"/>
<text class="tick" x="70" y="254.0" text-anchor="end">50</text>
<line class="grid" x1="78" y1="176.0" x2="856" y2="176.0"/>
<text class="tick" x="70" y="180.0" text-anchor="end">100</text>
<line class="grid" x1="78" y1="102.0" x2="856" y2="102.0"/>
<text class="tick" x="70" y="106.0" text-anchor="end">150</text>
<line class="grid" x1="78" y1="28.0" x2="856" y2="28.0"/>
<text class="tick" x="70" y="32.0" text-anchor="end">200</text>
<text class="muted" x="78" y="372">null cells</text>
<line class="axis" x1="78" y1="324" x2="856" y2="324"/>
<text class="tick" x="102.3" y="342" text-anchor="middle">2010-11</text>
<text class="tick" x="199.6" y="342" text-anchor="middle">2012-13</text>
<text class="tick" x="296.8" y="342" text-anchor="middle">2014-15</text>
<text class="tick" x="394.1" y="342" text-anchor="middle">2016-17</text>
<text class="tick" x="491.3" y="342" text-anchor="middle">2018-19</text>
<text class="tick" x="588.6" y="342" text-anchor="middle">2020-21</text>
<text class="tick" x="685.8" y="342" text-anchor="middle">2022-23</text>
<text class="tick" x="831.7" y="342" text-anchor="middle">2025-26</text>
<rect class="bar" x="87.2" y="324.0" width="30.1" height="0.0" rx="2"/>
<rect class="bar" x="135.9" y="324.0" width="30.1" height="0.0" rx="2"/>
<rect class="bar" x="184.5" y="324.0" width="30.1" height="0.0" rx="2"/>
<rect class="bar" x="233.1" y="324.0" width="30.1" height="0.0" rx="2"/>
<rect class="bar" x="281.7" y="322.5" width="30.1" height="1.5" rx="2"/>
<rect class="bar" x="330.4" y="324.0" width="30.1" height="0.0" rx="2"/>
<rect class="bar" x="379.0" y="324.0" width="30.1" height="0.0" rx="2"/>
<rect class="bar" x="427.6" y="82.8" width="30.1" height="241.2" rx="2"/>
<rect class="bar" x="476.2" y="319.6" width="30.1" height="4.4" rx="2"/>
<rect class="bar" x="524.9" y="322.5" width="30.1" height="1.5" rx="2"/>
<rect class="bar" x="573.5" y="322.5" width="30.1" height="1.5" rx="2"/>
<rect class="bar" x="622.1" y="319.6" width="30.1" height="4.4" rx="2"/>
<rect class="bar" x="670.7" y="322.5" width="30.1" height="1.5" rx="2"/>
<rect class="bar" x="719.4" y="322.5" width="30.1" height="1.5" rx="2"/>
<rect class="bar" x="768.0" y="324.0" width="30.1" height="0.0" rx="2"/>
<rect class="bar" x="816.6" y="324.0" width="30.1" height="0.0" rx="2"/>
<text class="muted" x="450.7" y="72.8" text-anchor="start">the seam</text>
</svg>